<?xml version="1.0" standalone="no"?>
<!DOCTYPE svg PUBLIC "-//W3C//DTD SVG 20010904//EN"
 "http://www.w3.org/TR/2001/REC-SVG-20010904/DTD/svg10.dtd">
<svg version="1.0" xmlns="http://www.w3.org/2000/svg"
 width="1280.000000pt" height="1280.000000pt" viewBox="0 0 1280.000000 1280.000000"
 preserveAspectRatio="xMidYMid meet">
<metadata>
Created by potrace 1.16, written by Peter Selinger 2001-2019
</metadata>
<g transform="translate(0.000000,1280.000000) scale(0.100000,-0.100000)"
fill="#000000" stroke="none">
<path d="M5635 12793 c-22 -2 -44 -9 -49 -14 -6 -5 -64 -9 -131 -9 -109 0
-121 -2 -133 -20 -11 -18 -23 -20 -122 -20 -70 0 -110 -4 -110 -10 0 -6 -6
-10 -12 -9 -7 1 -31 0 -53 -1 l-40 -3 45 -7 45 -7 -58 -1 c-36 -1 -56 -6 -52
-12 4 -6 -16 -10 -52 -10 -47 0 -61 -4 -71 -20 -10 -17 -23 -20 -88 -20 -47 0
-73 -4 -69 -10 4 -6 -18 -11 -57 -12 l-63 -1 55 -7 55 -7 -57 -1 c-31 -1 -60
-7 -64 -13 -3 -6 -17 -8 -29 -5 -25 6 -44 -9 -23 -17 7 -3 3 -6 -9 -6 -13 -1
-23 -5 -23 -11 0 -5 -24 -10 -54 -10 -30 0 -58 -5 -61 -10 -4 -6 -11 -8 -16
-4 -5 3 -8 0 -7 -8 2 -9 -13 -14 -52 -16 -39 -2 -50 -6 -40 -13 12 -8 9 -10
-10 -8 -39 2 -46 -1 -30 -11 12 -8 11 -10 -7 -10 -13 0 -23 -4 -23 -10 0 -5
-17 -10 -38 -10 -26 0 -41 -6 -50 -20 -8 -13 -23 -20 -45 -20 -34 0 -87 -20
-87 -32 0 -5 -9 -8 -20 -8 -11 0 -20 -4 -20 -10 0 -5 -13 -10 -30 -10 -16 0
-30 -4 -30 -10 0 -5 -19 -11 -42 -11 l-43 -2 35 -7 35 -7 -40 -2 c-28 -1 -44
-7 -53 -21 -7 -12 -23 -20 -38 -20 -16 0 -23 -4 -18 -11 5 -8 -4 -10 -29 -7
-20 2 -33 0 -31 -4 11 -17 -26 -38 -65 -38 -22 0 -43 -5 -47 -12 -5 -7 -3 -8
7 -3 12 8 12 6 0 -8 -7 -9 -22 -17 -32 -17 -11 0 -19 -4 -19 -10 0 -5 -9 -10
-20 -10 -11 0 -20 -5 -20 -11 0 -5 -4 -7 -10 -4 -5 3 -10 -1 -10 -9 0 -10 -9
-16 -23 -16 -13 0 -32 -9 -42 -20 -11 -12 -31 -20 -49 -20 -24 0 -27 -3 -16
-10 12 -8 12 -10 -5 -10 -11 0 -26 -9 -33 -20 -7 -12 -23 -20 -40 -20 -16 0
-32 -8 -40 -20 -7 -11 -21 -20 -32 -20 -11 0 -20 -4 -20 -9 0 -9 -38 -24 -53
-22 -5 1 -6 -3 -3 -8 7 -10 -48 -41 -73 -41 -14 0 -14 -2 -1 -10 11 -7 5 -10
-25 -11 -32 0 -36 -2 -20 -9 19 -8 19 -9 -2 -9 -13 -1 -23 -6 -23 -12 0 -5 -4
-7 -10 -4 -5 3 -10 -1 -10 -9 0 -9 -7 -17 -15 -17 -29 -3 -33 -4 -42 -13 -5
-6 -2 -6 7 -1 13 8 13 7 1 -8 -7 -9 -22 -17 -32 -17 -11 0 -19 -5 -19 -11 0
-5 -4 -7 -10 -4 -5 3 -15 3 -21 -1 -8 -4 -7 -9 2 -15 10 -6 8 -9 -8 -9 -13 0
-23 -4 -23 -9 0 -5 -9 -13 -20 -16 -11 -3 -20 -13 -20 -21 0 -8 -9 -14 -20
-14 -11 0 -20 -5 -20 -11 0 -6 -7 -9 -15 -6 -8 4 -17 2 -20 -3 -3 -4 1 -11 7
-13 7 -3 3 -6 -9 -6 -13 -1 -23 -6 -23 -12 0 -6 -7 -8 -16 -5 -8 3 -12 2 -9
-3 3 -5 -4 -13 -16 -16 -17 -6 -19 -9 -8 -16 11 -7 10 -9 -4 -9 -11 0 -26 -8
-35 -18 -10 -10 -12 -11 -7 -2 9 13 8 13 -7 1 -10 -7 -18 -19 -18 -25 0 -6
-11 -16 -25 -23 -16 -7 -23 -7 -18 -1 3 7 1 8 -5 4 -7 -4 -12 -14 -12 -22 0
-8 -10 -14 -23 -14 -13 0 -32 -10 -43 -22 -12 -13 -13 -18 -4 -13 13 8 13 7 1
-8 -8 -10 -16 -15 -19 -12 -3 3 -10 -5 -16 -18 -6 -12 -22 -23 -34 -25 -13 -2
-22 -10 -22 -21 0 -23 -20 -41 -46 -41 -22 0 -40 -16 -59 -54 -6 -12 -22 -22
-37 -24 -14 -2 -34 -13 -44 -25 l-19 -22 25 20 25 20 -24 -27 c-13 -15 -28
-25 -33 -22 -5 3 -7 0 -6 -8 2 -7 -3 -12 -9 -11 -7 2 -12 -3 -10 -10 1 -6 -4
-11 -10 -10 -7 2 -12 0 -10 -5 1 -4 -60 -70 -135 -146 -76 -76 -138 -134 -138
-129 0 4 -6 -3 -13 -17 -8 -14 -19 -24 -25 -23 -7 2 -11 -3 -9 -10 1 -6 -4
-11 -11 -9 -8 1 -11 -2 -8 -6 3 -5 -4 -18 -17 -28 -21 -19 -21 -19 -7 1 14 19
14 19 -3 6 -9 -7 -17 -20 -17 -27 0 -8 -4 -14 -10 -14 -5 0 -10 -8 -10 -19 0
-19 -28 -49 -39 -42 -3 2 -10 -5 -16 -15 -5 -11 -13 -21 -16 -24 -4 -3 -8 -14
-10 -25 -3 -11 -17 -26 -32 -33 -15 -7 -27 -18 -27 -23 0 -6 -16 -27 -37 -47
-20 -20 -30 -28 -22 -17 13 18 13 19 -3 6 -10 -7 -18 -20 -18 -27 0 -8 -4 -14
-10 -14 -5 0 -10 -9 -10 -20 0 -11 -9 -25 -20 -32 -11 -7 -20 -19 -20 -27 0
-8 -13 -27 -30 -43 -16 -15 -30 -35 -30 -42 0 -8 -8 -17 -18 -20 -10 -4 -25
-22 -32 -41 -8 -20 -17 -30 -21 -24 -5 8 -8 8 -13 0 -4 -6 -4 -15 -1 -21 3 -5
1 -10 -4 -10 -6 0 -11 -9 -11 -20 0 -11 -5 -20 -11 -20 -5 0 -7 5 -3 12 4 7 3
8 -5 4 -6 -4 -9 -12 -6 -17 4 -5 1 -9 -4 -9 -6 0 -11 -7 -11 -15 0 -8 -4 -15
-10 -15 -5 0 -10 -8 -10 -18 0 -10 -9 -24 -20 -32 -11 -8 -20 -22 -20 -32 0
-10 -4 -18 -8 -18 -5 0 -15 -12 -23 -27 -8 -16 -22 -35 -31 -44 -10 -9 -18
-21 -18 -26 0 -16 -25 -63 -33 -63 -5 0 -5 5 -1 12 4 7 3 8 -5 4 -6 -4 -9 -11
-6 -16 3 -5 1 -11 -5 -15 -5 -3 -10 -14 -10 -24 0 -10 -9 -26 -20 -36 -11 -10
-20 -24 -20 -32 0 -7 -4 -13 -10 -13 -5 0 -10 -10 -10 -22 0 -17 -3 -19 -9 -9
-6 9 -11 10 -15 2 -4 -6 -5 -15 -1 -20 3 -5 1 -12 -5 -16 -5 -3 -10 -15 -10
-26 0 -24 -26 -53 -39 -45 -10 6 -25 -24 -16 -32 3 -3 5 1 5 8 0 7 3 11 6 7
10 -9 -19 -67 -34 -67 -7 0 -11 -4 -7 -9 3 -5 1 -12 -5 -16 -5 -3 -10 -16 -10
-28 0 -13 -9 -29 -20 -37 -11 -8 -20 -19 -20 -26 0 -23 -32 -74 -42 -68 -6 4
-8 2 -4 -4 3 -6 2 -13 -4 -17 -5 -3 -10 -20 -10 -36 0 -16 -9 -39 -20 -51 -11
-12 -20 -29 -20 -39 0 -9 -7 -30 -15 -45 -8 -16 -15 -23 -15 -15 0 11 -3 11
-15 1 -12 -10 -13 -15 -4 -20 8 -6 8 -9 0 -14 -6 -4 -11 -22 -11 -41 0 -32
-20 -52 -41 -40 -5 4 -6 -7 -3 -24 6 -29 -13 -91 -28 -91 -5 0 -8 -9 -8 -19 0
-11 -4 -23 -10 -26 -5 -3 -11 -23 -11 -43 l-2 -37 -7 35 -7 35 -3 -30 c-2 -16
-4 -35 -4 -42 -1 -6 -5 -15 -9 -19 -4 -4 -7 -20 -7 -35 0 -15 -13 -53 -30 -84
-16 -31 -30 -70 -30 -86 0 -20 -5 -29 -16 -29 -8 0 -13 -4 -9 -9 3 -5 1 -12
-5 -16 -5 -3 -10 -28 -10 -55 0 -43 -8 -66 -51 -152 -5 -10 -9 -38 -9 -63 0
-34 -4 -45 -16 -45 -8 0 -12 -4 -9 -10 3 -5 1 -10 -4 -10 -7 0 -11 -27 -11
-68 0 -56 -3 -70 -20 -82 -16 -12 -20 -26 -20 -77 0 -34 -4 -65 -10 -68 -5 -3
-10 -22 -10 -41 0 -21 -8 -43 -20 -56 -17 -19 -20 -36 -20 -120 0 -85 -3 -102
-20 -120 -18 -19 -20 -36 -20 -138 0 -79 -4 -120 -12 -128 -19 -19 -19 -1605
0 -1624 8 -8 12 -49 12 -128 0 -102 2 -119 20 -138 17 -18 20 -35 20 -120 0
-84 3 -101 20 -120 12 -13 20 -35 20 -56 0 -19 5 -38 10 -41 6 -3 10 -34 10
-68 0 -51 4 -65 20 -77 17 -12 20 -26 20 -82 0 -41 4 -68 11 -68 5 0 7 -4 4
-10 -3 -5 1 -10 9 -10 12 0 16 -11 16 -45 0 -25 4 -53 9 -63 43 -86 51 -109
51 -152 0 -27 5 -52 10 -55 6 -4 8 -11 5 -16 -4 -5 1 -9 9 -9 11 0 16 -9 16
-29 0 -16 13 -55 30 -86 16 -31 30 -69 30 -84 0 -15 3 -31 7 -35 4 -4 8 -13 9
-19 0 -7 2 -25 4 -42 l3 -30 7 35 7 35 2 -37 c0 -20 6 -40 11 -43 6 -3 10 -15
10 -26 0 -10 3 -19 8 -19 15 0 34 -62 28 -91 -3 -17 -2 -28 3 -24 21 12 41 -8
41 -40 0 -19 5 -37 11 -41 8 -5 8 -8 0 -14 -9 -5 -8 -10 4 -20 12 -10 15 -10
15 1 0 8 7 1 15 -15 8 -15 15 -36 15 -45 0 -10 9 -27 20 -39 11 -12 20 -35 20
-51 0 -16 5 -33 10 -36 6 -4 7 -11 4 -17 -4 -6 -2 -8 4 -4 10 6 42 -45 42 -68
0 -7 9 -18 20 -26 11 -8 20 -24 20 -37 0 -12 5 -25 10 -28 6 -4 8 -11 5 -16
-4 -5 0 -9 7 -9 15 0 44 -58 34 -67 -3 -4 -6 0 -6 7 0 7 -2 11 -5 8 -9 -8 6
-38 16 -32 13 8 39 -21 39 -45 0 -11 5 -23 10 -26 6 -4 8 -11 5 -16 -4 -5 -3
-14 1 -20 4 -8 9 -7 15 2 6 10 9 8 9 -8 0 -13 5 -23 10 -23 6 0 10 -6 10 -13
0 -8 9 -22 20 -32 11 -10 20 -26 20 -36 0 -10 5 -21 10 -24 6 -4 8 -10 5 -15
-3 -5 0 -12 6 -16 8 -4 9 -3 5 4 -4 7 -4 12 1 12 8 0 33 -47 33 -63 0 -5 8
-17 18 -26 9 -9 23 -28 31 -43 8 -16 18 -28 23 -28 4 0 8 -8 8 -18 0 -10 9
-24 20 -32 11 -8 20 -22 20 -32 0 -10 5 -18 10 -18 6 0 10 -7 10 -15 0 -8 5
-15 11 -15 5 0 8 -4 4 -9 -3 -5 0 -13 6 -17 8 -4 9 -3 5 4 -4 7 -2 12 3 12 6
0 11 -9 11 -20 0 -11 5 -20 11 -20 5 0 7 -4 4 -10 -3 -5 -3 -15 1 -21 5 -8 8
-8 13 0 4 6 13 -4 21 -24 7 -19 22 -37 32 -41 10 -3 18 -12 18 -20 0 -7 14
-27 30 -42 17 -16 30 -35 30 -43 0 -8 9 -20 20 -27 11 -7 20 -21 20 -32 0 -11
5 -20 10 -20 6 0 10 -6 10 -14 0 -7 8 -20 17 -27 17 -13 17 -12 4 6 -8 11 2 3
22 -17 21 -20 37 -41 37 -47 0 -5 12 -16 27 -23 15 -7 29 -22 32 -33 2 -11 6
-22 10 -25 3 -3 11 -14 17 -25 6 -11 15 -20 20 -20 18 0 34 -17 34 -36 0 -10
5 -19 10 -19 6 0 10 -6 10 -14 0 -7 8 -20 17 -27 17 -13 17 -13 3 6 -14 20
-14 20 7 1 13 -10 20 -23 17 -28 -3 -4 0 -7 8 -6 7 2 12 -3 10 -10 -1 -6 3
-11 10 -10 6 2 17 -8 25 -22 7 -14 13 -21 13 -17 0 5 62 -53 138 -129 75 -76
136 -142 134 -146 -1 -5 4 -7 10 -6 7 2 12 -3 10 -10 -1 -6 4 -11 10 -10 7 2
12 -3 10 -10 -1 -8 1 -11 6 -8 5 3 20 -7 33 -22 l24 -27 -25 20 -25 20 19 -22
c10 -12 30 -23 44 -25 15 -2 31 -12 37 -24 19 -38 37 -54 59 -54 26 0 46 -18
46 -41 0 -11 9 -19 22 -21 12 -2 28 -13 34 -25 6 -13 13 -21 16 -18 3 3 11 -2
19 -12 12 -15 12 -16 -1 -8 -9 5 -8 0 4 -13 11 -12 30 -22 43 -22 13 0 23 -6
23 -14 0 -8 5 -18 12 -22 6 -4 8 -3 5 4 -5 6 2 6 18 -1 14 -7 25 -17 25 -23 0
-6 8 -18 18 -25 15 -12 16 -12 7 1 -5 9 -3 8 7 -2 9 -10 24 -18 35 -18 14 0
15 -2 4 -9 -11 -7 -9 -10 8 -16 12 -3 19 -11 16 -16 -3 -5 1 -6 9 -3 9 3 16 1
16 -5 0 -6 10 -11 23 -12 12 0 16 -3 9 -6 -6 -2 -10 -9 -7 -13 3 -5 12 -7 20
-3 8 3 15 0 15 -6 0 -6 9 -11 20 -11 11 0 20 -6 20 -14 0 -8 9 -18 20 -21 11
-3 20 -11 20 -16 0 -5 10 -9 23 -9 16 0 18 -3 8 -9 -9 -6 -10 -11 -2 -15 6 -4
16 -4 21 -1 6 3 10 1 10 -4 0 -6 8 -11 19 -11 10 0 25 -8 32 -17 12 -15 12
-16 -1 -8 -9 5 -12 5 -7 -1 9 -9 13 -10 42 -13 8 0 15 -8 15 -17 0 -8 4 -12
10 -9 5 3 10 1 10 -4 0 -6 10 -11 23 -12 21 0 21 -1 2 -9 -16 -7 -12 -9 20 -9
30 -1 36 -4 25 -11 -13 -8 -13 -10 1 -10 25 0 80 -31 73 -41 -3 -5 -2 -9 3 -8
15 2 53 -13 53 -22 0 -5 9 -9 20 -9 11 0 25 -9 32 -20 8 -12 24 -20 40 -20 17
0 33 -8 40 -20 7 -11 22 -20 33 -20 17 0 17 -2 5 -10 -11 -7 -8 -10 16 -10 18
0 38 -8 49 -20 10 -11 29 -20 42 -20 14 0 23 -6 23 -16 0 -8 5 -12 10 -9 6 3
10 1 10 -4 0 -6 9 -11 20 -11 11 0 20 -4 20 -10 0 -5 8 -10 19 -10 10 0 25 -8
32 -17 12 -14 12 -16 0 -8 -10 5 -12 4 -7 -3 4 -7 25 -12 47 -12 39 0 76 -21
65 -38 -2 -4 11 -6 31 -4 25 3 34 1 29 -7 -5 -7 2 -11 18 -11 15 0 31 -8 38
-20 9 -14 25 -20 53 -21 l40 -2 -35 -7 -35 -7 43 -2 c23 0 42 -5 42 -11 0 -5
14 -10 30 -10 17 0 30 -4 30 -10 0 -5 9 -10 20 -10 11 0 20 -3 20 -7 0 -13 53
-33 87 -33 22 0 37 -7 45 -20 9 -14 24 -20 50 -20 21 0 38 -4 38 -10 0 -5 10
-10 23 -10 18 0 19 -2 7 -10 -16 -10 -9 -13 30 -11 19 2 22 0 10 -8 -10 -7 1
-11 40 -13 39 -2 54 -7 52 -16 -1 -8 2 -11 7 -8 5 4 12 2 16 -4 3 -5 31 -10
61 -10 30 0 54 -4 54 -10 0 -5 10 -10 23 -11 12 0 16 -3 9 -6 -21 -8 -2 -23
23 -17 12 3 26 1 29 -5 4 -6 33 -12 64 -13 l57 -1 -55 -7 -55 -7 63 -1 c39 -1
61 -6 57 -12 -4 -6 22 -10 69 -10 65 0 78 -3 88 -20 10 -16 24 -20 71 -20 36
0 56 -4 52 -10 -4 -6 16 -11 52 -12 l58 -1 -45 -7 -45 -7 40 -3 c22 -1 46 -2
53 -1 6 1 12 -3 12 -9 0 -6 40 -10 110 -10 99 0 111 -2 122 -20 12 -18 24 -20
133 -20 84 0 125 -4 134 -12 18 -19 1604 -19 1622 0 9 8 50 12 134 12 109 0
121 2 133 20 11 18 23 20 122 20 70 0 110 4 110 10 0 6 6 10 13 9 6 -1 30 0
52 1 l40 3 -45 7 -45 7 58 1 c36 1 56 6 52 12 -4 6 16 10 52 10 47 0 61 4 71
20 10 17 23 20 88 20 47 0 73 4 69 10 -4 6 18 11 57 12 l63 1 -55 7 -55 7 57
1 c31 1 60 7 64 13 3 6 17 8 29 5 25 -6 44 9 23 17 -7 3 -3 6 10 6 12 1 22 6
22 11 0 6 24 10 54 10 30 0 58 5 61 10 4 6 11 8 16 4 5 -3 8 0 7 8 -2 9 13 14
52 16 39 2 50 6 40 13 -12 8 -9 10 10 8 39 -2 46 1 30 11 -12 8 -11 10 8 10
12 0 22 5 22 10 0 6 17 10 38 10 26 0 41 6 50 20 8 13 23 20 45 20 34 0 87 20
87 33 0 4 9 7 20 7 11 0 20 5 20 10 0 6 14 10 30 10 17 0 30 5 30 10 0 6 19
11 43 11 l42 2 -35 7 -35 7 40 2 c28 1 44 7 53 21 7 12 23 20 38 20 16 0 23 4
18 11 -5 8 4 10 29 7 20 -2 33 0 31 4 -10 15 25 38 58 38 22 0 37 7 46 20 7
11 21 20 32 20 11 0 20 5 20 10 0 6 9 10 20 10 11 0 20 5 20 11 0 5 5 7 10 4
6 -3 10 1 10 9 0 10 9 16 23 16 13 0 32 9 42 20 11 12 31 20 49 20 24 0 27 3
16 10 -12 8 -12 10 5 10 11 0 26 9 33 20 7 12 23 20 40 20 16 0 32 8 40 20 7
11 21 20 32 20 11 0 20 4 20 9 0 9 38 24 53 22 5 -1 6 3 3 8 -7 10 48 41 73
41 14 0 14 2 1 10 -11 7 -5 10 25 11 32 0 36 2 20 9 -19 8 -19 9 3 9 12 1 22
6 22 12 0 5 5 7 10 4 6 -3 10 1 10 9 0 9 8 16 18 16 9 0 23 9 30 20 7 11 21
20 32 20 11 0 20 5 20 11 0 5 5 7 10 4 5 -3 15 -3 21 1 8 4 7 9 -2 15 -10 6
-8 9 9 9 12 0 22 4 22 9 0 5 9 13 20 16 11 3 20 13 20 21 0 8 9 14 20 14 11 0
20 5 20 11 0 6 7 9 15 6 8 -4 17 -2 20 3 3 4 -1 11 -7 13 -7 3 -3 6 10 6 12 1
22 6 22 12 0 6 7 8 16 5 8 -3 12 -2 9 3 -3 5 4 13 16 16 17 6 19 9 8 16 -11 7
-10 9 4 9 11 0 26 8 35 18 10 10 13 11 7 2 -9 -13 -8 -13 8 -1 9 7 17 19 17
25 0 6 11 16 25 23 16 7 23 7 18 1 -3 -7 -1 -8 5 -4 7 4 12 14 12 22 0 8 10
14 23 14 13 0 32 10 43 22 12 13 13 18 4 13 -13 -8 -13 -7 -1 8 8 10 16 15 19
12 3 -3 10 5 16 18 6 12 22 23 34 25 13 2 22 10 22 21 0 23 20 41 46 41 22 0
40 16 59 54 6 12 22 22 37 24 14 2 34 13 44 25 l19 22 -25 -20 -25 -20 24 27
c13 15 28 25 33 22 5 -3 7 0 6 8 -2 7 3 12 10 10 6 -1 11 4 10 10 -2 7 3 12
10 10 6 -1 11 1 10 6 -2 4 59 70 135 146 75 76 137 134 137 129 0 -4 6 3 13
17 8 14 19 24 25 22 7 -1 11 4 10 10 -2 7 3 12 10 10 8 -1 11 2 8 6 -3 5 4 18
17 28 21 19 21 19 7 -1 -14 -19 -14 -19 3 -6 9 7 17 20 17 27 0 8 5 14 10 14
6 0 10 9 10 19 0 19 16 36 34 36 5 0 14 9 20 20 6 11 14 22 17 25 4 3 8 14 10
25 3 11 17 26 32 33 15 7 27 18 27 23 0 6 16 27 37 47 20 20 30 28 22 17 -13
-18 -13 -19 4 -6 9 7 17 20 17 27 0 8 5 14 10 14 6 0 10 9 10 20 0 11 9 25 20
32 11 7 20 19 20 27 0 8 14 27 30 43 17 15 30 35 30 42 0 8 8 17 18 20 10 4
25 22 32 41 8 20 17 30 21 24 5 -8 8 -8 13 0 4 6 4 16 1 21 -3 6 -1 10 4 10 6
0 11 9 11 20 0 11 5 20 11 20 5 0 7 -5 3 -12 -4 -7 -3 -8 5 -4 6 4 9 12 6 17
-4 5 -1 9 4 9 6 0 11 7 11 15 0 8 5 15 10 15 6 0 10 8 10 18 0 10 9 24 20 32
11 8 20 22 20 32 0 10 4 18 8 18 5 0 15 12 23 28 8 15 22 34 31 43 10 9 18 21
18 26 0 16 25 63 33 63 5 0 5 -5 1 -12 -4 -7 -3 -8 5 -4 6 4 9 11 6 16 -3 5
-1 11 5 15 5 3 10 14 10 24 0 10 9 26 20 36 11 10 20 24 20 32 0 7 5 13 10 13
6 0 10 10 10 23 0 16 3 18 9 8 6 -9 11 -10 15 -2 4 6 5 15 1 20 -3 5 -1 12 5
16 5 3 10 15 10 26 0 24 26 53 39 45 10 -6 25 24 16 32 -3 3 -5 -1 -5 -8 0 -7
-3 -11 -6 -7 -10 9 19 67 34 67 7 0 11 4 7 9 -3 5 -1 12 5 16 5 3 10 16 10 28
0 13 9 29 20 37 11 8 20 19 20 26 0 23 32 74 42 68 6 -4 8 -2 4 4 -3 6 -2 13
4 17 5 3 10 20 10 36 0 16 9 39 20 51 11 12 20 29 20 39 0 9 7 30 15 45 8 16
15 23 15 15 0 -11 3 -11 15 -1 12 10 13 15 4 20 -8 6 -8 9 0 14 6 4 11 22 11
41 0 32 20 52 41 40 5 -4 6 7 3 24 -6 29 13 91 28 91 5 0 8 9 8 19 0 11 5 23
10 26 6 3 11 23 11 43 l2 37 7 -35 7 -35 3 30 c2 17 4 35 4 42 1 6 5 15 9 19
4 4 7 20 7 35 0 15 14 53 30 84 17 31 30 70 30 86 0 20 5 29 16 29 8 0 13 4 9
9 -3 5 -1 12 5 16 5 3 10 28 10 55 0 43 8 66 51 152 5 10 9 38 9 63 0 34 4 45
16 45 8 0 12 4 9 10 -3 5 -1 10 4 10 7 0 11 27 11 68 0 56 3 70 20 82 16 12
20 26 20 77 0 34 5 65 10 68 6 3 10 22 10 41 0 21 8 43 20 56 17 19 20 36 20
120 0 85 3 102 20 120 18 19 20 36 20 138 0 79 4 120 13 128 9 10 12 186 12
812 0 626 -3 802 -12 811 -9 9 -13 50 -13 129 0 102 -2 119 -20 138 -17 18
-20 35 -20 120 0 84 -3 101 -20 120 -12 13 -20 35 -20 56 0 19 -4 38 -10 41
-5 3 -10 34 -10 68 0 51 -4 65 -20 77 -17 12 -20 26 -20 82 0 41 -4 68 -11 68
-5 0 -7 5 -4 10 3 6 -1 10 -9 10 -12 0 -16 11 -16 45 0 25 -4 53 -9 63 -43 86
-51 109 -51 152 0 27 -5 52 -10 55 -6 4 -8 11 -5 16 4 5 -1 9 -9 9 -11 0 -16
9 -16 29 0 16 -13 55 -30 86 -16 31 -30 69 -30 84 0 15 -3 31 -7 35 -4 4 -8
13 -9 19 0 7 -2 26 -4 42 l-3 30 -7 -35 -7 -35 -2 37 c0 20 -5 40 -11 43 -5 3
-10 15 -10 26 0 10 -3 19 -8 19 -15 0 -34 62 -28 91 3 17 2 28 -3 24 -21 -12
-41 8 -41 40 0 19 -5 37 -11 41 -8 5 -8 8 0 14 9 5 8 10 -4 20 -12 10 -15 10
-15 -1 0 -8 -7 -1 -15 15 -8 15 -15 36 -15 45 0 10 -9 27 -20 39 -11 12 -20
35 -20 51 0 16 -5 33 -10 36 -6 4 -7 11 -4 17 4 6 2 8 -4 4 -10 -6 -42 45 -42
68 0 7 -9 18 -20 26 -11 8 -20 24 -20 37 0 12 -5 25 -10 28 -6 4 -8 11 -5 16
4 5 0 9 -7 9 -15 0 -44 58 -34 67 3 4 6 0 6 -7 0 -7 2 -11 5 -8 9 8 -6 38 -16
32 -13 -8 -39 21 -39 45 0 11 -5 23 -10 26 -6 4 -8 11 -5 16 4 5 3 14 -1 20
-4 8 -9 7 -15 -2 -6 -10 -9 -8 -9 9 0 12 -4 22 -10 22 -5 0 -10 6 -10 13 0 8
-9 22 -20 32 -11 10 -20 26 -20 36 0 10 -5 21 -10 24 -6 4 -8 10 -5 15 3 5 0
12 -6 16 -8 4 -9 3 -5 -4 4 -7 4 -12 -1 -12 -8 0 -33 47 -33 63 0 5 -8 17 -18
26 -9 9 -23 28 -31 44 -8 15 -18 27 -23 27 -4 0 -8 8 -8 18 0 10 -9 24 -20 32
-11 8 -20 22 -20 32 0 10 -4 18 -10 18 -5 0 -10 7 -10 15 0 8 -5 15 -11 15 -5
0 -8 4 -4 9 3 5 0 13 -6 17 -8 4 -9 3 -5 -4 4 -7 2 -12 -3 -12 -6 0 -11 9 -11
20 0 11 -5 20 -11 20 -5 0 -7 5 -4 10 3 6 3 15 -1 21 -5 8 -8 8 -13 0 -4 -6
-13 4 -21 24 -7 19 -22 37 -32 41 -10 3 -18 12 -18 20 0 7 -13 27 -30 42 -16
16 -30 35 -30 43 0 8 -9 20 -20 27 -11 7 -20 21 -20 32 0 11 -4 20 -10 20 -5
0 -10 6 -10 14 0 7 -8 20 -17 27 -17 13 -17 12 -4 -6 8 -11 -2 -3 -22 17 -21
20 -37 41 -37 47 0 5 -12 16 -27 23 -15 7 -29 22 -32 33 -2 11 -6 22 -10 25
-3 3 -11 14 -17 25 -6 11 -15 19 -20 18 -15 -2 -34 18 -34 38 0 11 -4 19 -10
19 -5 0 -10 6 -10 14 0 7 -8 20 -17 27 -17 13 -17 13 -3 -6 14 -20 14 -20 -7
-1 -13 10 -20 23 -17 28 3 4 0 7 -8 6 -7 -2 -12 3 -11 9 2 7 -2 12 -9 10 -6
-1 -17 9 -25 23 -7 14 -13 21 -13 17 0 -5 -62 53 -137 129 -76 76 -137 142
-136 146 2 5 -3 7 -10 5 -6 -1 -11 4 -10 10 2 7 -3 12 -10 10 -6 -1 -11 4 -9
11 1 8 -1 11 -6 8 -5 -3 -20 7 -33 22 l-24 27 25 -20 25 -20 -19 22 c-10 12
-30 23 -44 25 -15 2 -31 12 -37 24 -19 38 -37 54 -59 54 -26 0 -46 18 -46 41
0 11 -9 19 -22 21 -12 2 -28 13 -34 25 -6 13 -13 21 -16 18 -3 -3 -11 2 -19
12 -12 15 -12 16 1 8 9 -5 8 0 -4 13 -11 12 -30 22 -43 22 -13 0 -23 6 -23 14
0 8 -5 18 -12 22 -6 4 -8 3 -5 -4 5 -6 -2 -6 -18 1 -14 7 -25 17 -25 23 0 6
-8 18 -17 25 -16 12 -17 12 -8 -1 6 -9 3 -8 -7 2 -9 10 -24 18 -35 18 -14 0
-15 2 -4 9 11 7 9 10 -8 16 -12 3 -19 11 -16 16 3 5 -1 6 -9 3 -9 -3 -16 -1
-16 5 0 6 -10 11 -22 12 -13 0 -17 3 -10 6 6 2 10 9 7 13 -3 5 -12 7 -20 3 -8
-3 -15 0 -15 6 0 6 -9 11 -20 11 -11 0 -20 6 -20 14 0 8 -9 18 -20 21 -11 3
-20 11 -20 16 0 5 -10 9 -22 9 -17 0 -19 3 -9 9 9 6 10 11 2 15 -6 4 -15 4
-21 1 -5 -3 -10 -1 -10 4 0 6 -9 11 -20 11 -11 0 -25 9 -32 20 -7 11 -21 20
-30 20 -10 0 -18 7 -18 16 0 8 -4 12 -10 9 -5 -3 -10 -1 -10 4 0 6 -10 11 -22
12 -22 0 -22 1 -3 9 16 7 12 9 -20 9 -30 1 -36 4 -25 11 13 8 13 10 -1 10 -25
0 -80 31 -73 41 3 5 2 9 -3 8 -15 -2 -53 13 -53 22 0 5 -9 9 -20 9 -11 0 -25
9 -32 20 -8 12 -24 20 -40 20 -17 0 -33 8 -40 20 -7 11 -22 20 -33 20 -17 0
-17 2 -5 10 11 7 8 10 -16 10 -18 0 -38 8 -49 20 -10 11 -29 20 -42 20 -14 0
-23 6 -23 16 0 8 -4 12 -10 9 -5 -3 -10 -1 -10 4 0 6 -9 11 -20 11 -11 0 -20
5 -20 10 0 6 -9 10 -20 10 -11 0 -25 9 -32 20 -9 13 -24 20 -46 20 -33 0 -68
23 -58 38 2 4 -11 6 -31 4 -25 -3 -34 -1 -29 7 5 7 -2 11 -18 11 -15 0 -31 8
-38 20 -9 14 -25 20 -53 21 l-40 2 35 7 35 7 -42 2 c-24 0 -43 6 -43 11 0 6
-13 10 -30 10 -16 0 -30 5 -30 10 0 6 -9 10 -20 10 -11 0 -20 3 -20 8 0 12
-53 32 -87 32 -22 0 -37 7 -45 20 -9 14 -24 20 -50 20 -21 0 -38 5 -38 10 0 6
-10 10 -22 10 -19 0 -20 2 -8 10 16 10 9 13 -30 11 -19 -2 -22 0 -10 8 10 7
-1 11 -40 13 -39 2 -54 7 -52 16 1 8 -2 11 -7 8 -5 -4 -12 -2 -16 4 -3 5 -31
10 -61 10 -30 0 -54 5 -54 10 0 6 -10 10 -22 11 -13 0 -17 3 -10 6 21 8 2 23
-23 17 -12 -3 -26 -1 -29 5 -4 6 -33 12 -64 13 l-57 1 55 7 55 7 -63 1 c-39 1
-61 6 -57 12 4 6 -22 10 -69 10 -65 0 -78 3 -88 20 -10 16 -24 20 -71 20 -36
0 -56 4 -52 10 4 6 -16 11 -52 12 l-58 1 45 7 45 7 -40 3 c-22 1 -46 2 -52 1
-7 -1 -13 3 -13 9 0 6 -40 10 -110 10 -99 0 -111 2 -122 20 -12 18 -24 20
-133 20 -84 0 -125 4 -133 13 -10 9 -180 12 -775 13 -419 1 -780 -1 -802 -3z
m3815 -3813 c14 -4 36 -8 49 -8 13 -1 27 -6 31 -12 4 -7 11 -12 16 -12 18 0
139 -63 147 -75 4 -7 13 -13 19 -13 5 0 34 -26 64 -57 72 -77 75 -81 104 -137
82 -157 74 -132 88 -268 8 -67 4 -151 -11 -258 -5 -30 -102 -230 -125 -257
-29 -32 -62 -82 -62 -92 0 -5 -8 -16 -19 -23 -10 -7 -20 -17 -22 -23 -3 -10
-11 -21 -39 -54 -8 -10 -19 -25 -25 -34 -44 -69 -89 -129 -101 -134 -8 -3 -14
-12 -14 -20 0 -8 -5 -11 -10 -8 -6 4 -10 3 -9 -2 4 -22 -2 -43 -11 -38 -5 3
-10 -1 -10 -10 0 -9 -4 -14 -8 -11 -5 3 -14 -11 -21 -30 -7 -18 -17 -34 -22
-34 -5 0 -9 -4 -9 -9 0 -10 -40 -60 -87 -108 -18 -18 -33 -35 -33 -39 0 -14
-48 -62 -55 -56 -5 4 -5 2 -2 -5 4 -6 0 -18 -8 -26 -8 -9 -15 -18 -15 -21 0
-13 -48 -75 -54 -69 -3 4 -6 1 -6 -6 0 -20 -83 -124 -92 -116 -3 3 -5 -1 -5
-8 0 -13 -55 -100 -79 -124 -6 -7 -14 -10 -18 -8 -3 3 -4 2 -1 -1 7 -11 -21
-56 -66 -104 -22 -25 -55 -64 -72 -87 -17 -24 -34 -43 -39 -43 -4 0 -8 -7 -8
-15 0 -8 -4 -15 -8 -15 -5 0 -14 -11 -20 -24 -12 -26 -33 -55 -69 -93 -13 -13
-23 -28 -23 -33 0 -6 -4 -10 -8 -10 -4 0 -15 -12 -24 -27 -21 -37 -58 -78 -58
-67 0 5 -9 -9 -19 -31 -10 -22 -25 -46 -33 -53 -9 -7 -31 -37 -49 -67 -18 -30
-36 -52 -41 -49 -5 3 -8 2 -7 -3 3 -18 -2 -29 -25 -55 -12 -15 -26 -24 -30
-21 -4 4 -4 0 -1 -9 4 -10 -2 -22 -17 -32 -13 -9 -22 -20 -22 -24 2 -6 -39
-61 -71 -96 -6 -6 -24 -29 -40 -51 -16 -22 -41 -51 -55 -64 -14 -14 -24 -27
-24 -30 3 -15 -78 -121 -88 -115 -7 4 -8 2 -4 -4 4 -7 -5 -24 -21 -39 -15 -16
-27 -30 -26 -33 1 -3 -3 -4 -8 -3 -5 2 -8 0 -7 -5 3 -16 -15 -42 -31 -43 -9 0
-11 -3 -4 -6 10 -3 10 -7 0 -18 -7 -7 -16 -10 -21 -7 -5 3 -6 0 -2 -6 9 -14
-42 -84 -55 -76 -5 3 -9 0 -9 -7 0 -20 -80 -120 -91 -114 -5 4 -8 3 -7 -2 2
-7 -49 -93 -70 -119 -5 -5 -15 -21 -22 -34 -7 -14 -18 -30 -24 -36 -16 -18
-40 -48 -53 -70 -6 -10 -16 -18 -22 -17 -6 2 -10 -1 -8 -6 1 -5 -8 -22 -21
-38 -12 -15 -42 -54 -66 -85 -24 -32 -47 -54 -51 -50 -5 4 -5 2 -2 -5 4 -6 0
-18 -8 -26 -8 -9 -15 -21 -15 -27 0 -6 -4 -8 -10 -5 -5 3 -10 0 -10 -8 0 -7
-9 -23 -20 -35 -11 -12 -20 -26 -20 -32 0 -5 -4 -10 -10 -10 -5 0 -10 -6 -10
-13 0 -7 -18 -28 -40 -47 -22 -19 -40 -40 -40 -47 0 -7 -4 -13 -10 -13 -5 0
-10 -6 -10 -13 0 -8 -9 -22 -20 -32 -11 -10 -20 -22 -20 -27 0 -17 -43 -67
-53 -61 -6 3 -7 1 -3 -5 3 -6 1 -17 -6 -24 -7 -8 -18 -23 -25 -33 -6 -11 -16
-19 -22 -18 -6 2 -10 -1 -8 -6 4 -15 -64 -102 -75 -95 -7 4 -8 2 -4 -5 9 -14
-48 -83 -60 -73 -4 4 -4 1 0 -6 4 -6 1 -18 -6 -26 -7 -8 -24 -29 -38 -47 -14
-18 -33 -41 -42 -51 -10 -10 -18 -22 -18 -26 0 -5 -9 -17 -20 -27 -11 -10 -20
-25 -20 -34 0 -14 -2 -14 -10 -1 -8 12 -10 11 -10 -6 0 -11 -9 -30 -20 -42
-11 -12 -20 -24 -20 -28 0 -3 -12 -21 -27 -39 -16 -17 -34 -41 -42 -53 -8 -11
-18 -19 -23 -16 -5 3 -7 0 -6 -8 2 -7 -2 -12 -8 -11 -7 1 -11 -3 -10 -10 2
-21 -44 -76 -155 -187 -121 -119 -133 -130 -150 -130 -7 0 -9 -3 -6 -6 10 -10
-163 -94 -198 -96 -16 -1 -33 -6 -36 -11 -9 -13 -309 -11 -322 2 -6 6 -23 11
-38 11 -15 0 -31 5 -34 10 -3 6 -14 10 -24 10 -9 0 -26 8 -37 17 -11 10 -26
19 -34 21 -8 2 -16 8 -18 13 -2 5 -10 9 -18 9 -9 0 -12 5 -9 10 3 6 -1 10 -10
10 -10 0 -13 5 -9 12 4 7 3 8 -5 4 -16 -10 -64 22 -55 36 4 6 3 8 -3 5 -9 -6
-48 22 -110 80 -13 13 -26 23 -29 23 -8 0 -88 54 -114 78 -14 12 -29 22 -34
22 -4 0 -25 14 -45 30 -56 47 -60 50 -68 50 -4 0 -35 23 -68 50 -33 28 -65 50
-72 50 -7 0 -13 4 -13 8 0 5 -11 15 -25 22 -13 7 -23 16 -20 19 2 4 -6 8 -18
8 -12 1 -23 7 -25 13 -2 5 -10 10 -18 10 -8 0 -14 5 -14 10 0 6 -7 10 -15 10
-8 0 -15 5 -15 10 0 6 -7 10 -15 10 -8 0 -15 4 -15 8 0 5 -11 15 -25 22 -13 7
-22 16 -20 20 3 5 -6 11 -20 14 -14 4 -42 22 -62 41 -21 19 -42 35 -48 35 -6
0 -20 8 -31 18 -10 9 -32 24 -49 32 -16 8 -37 23 -46 32 -9 10 -25 18 -35 18
-16 0 -17 2 -4 10 12 8 10 10 -8 10 -13 0 -21 4 -18 8 2 4 -4 8 -14 9 -11 1
-39 17 -62 35 -61 47 -68 55 -60 63 4 5 2 5 -5 2 -6 -4 -18 0 -26 8 -9 8 -20
15 -24 15 -5 0 -18 8 -29 18 -11 9 -29 22 -40 29 -10 6 -18 16 -16 22 1 6 -5
11 -14 11 -8 0 -13 4 -10 8 2 4 -5 9 -16 9 -12 1 -24 6 -27 11 -3 4 -27 23
-54 41 -26 18 -45 36 -42 42 3 5 0 6 -8 3 -8 -3 -21 1 -28 8 -8 8 -43 34 -79
58 -77 52 -91 65 -82 75 4 5 1 5 -5 1 -15 -8 -85 42 -77 55 3 5 -2 6 -10 3 -9
-3 -26 5 -41 20 -14 14 -30 26 -36 26 -6 0 -7 4 -4 10 3 6 -1 7 -9 4 -9 -4
-18 1 -22 10 -3 9 -11 16 -18 16 -6 0 -27 14 -46 30 -19 16 -40 30 -45 30 -6
0 -17 9 -25 20 -8 11 -20 20 -27 20 -7 0 -13 5 -13 10 0 6 -8 10 -17 10 -15 0
-16 2 -3 10 12 8 9 10 -12 10 -16 0 -28 5 -28 10 0 6 -5 10 -11 10 -15 0 -39
26 -31 35 4 4 3 6 -3 5 -21 -5 -36 0 -30 10 3 6 -3 10 -13 10 -23 0 -45 23
-34 35 4 5 2 5 -5 2 -6 -4 -18 -2 -25 5 -8 7 -23 18 -33 25 -11 6 -19 15 -18
20 1 5 -8 10 -19 10 -12 1 -24 6 -27 11 -3 4 -27 23 -54 41 -27 18 -45 37 -41
43 4 7 2 8 -4 4 -16 -10 -142 121 -184 191 -43 74 -70 141 -62 155 4 7 2 8 -4
4 -12 -7 -15 4 -15 46 0 10 -4 15 -8 12 -5 -3 -10 7 -10 23 -3 65 -5 80 -13
121 -5 28 -4 47 3 56 6 8 11 27 10 42 -1 16 2 49 6 74 5 25 9 47 10 50 2 16
71 150 91 177 13 17 24 35 24 38 0 9 120 125 129 125 5 0 20 11 35 25 15 14
48 34 74 45 26 12 55 25 64 30 10 6 27 10 39 10 11 0 28 4 37 9 10 5 40 10 67
12 28 1 56 7 62 12 7 5 25 6 40 3 16 -4 55 -9 88 -11 33 -3 67 -8 75 -12 8 -3
24 -8 35 -10 11 -1 29 -7 40 -12 24 -11 56 -23 70 -27 29 -7 65 -32 53 -37 -7
-3 -4 -6 8 -6 25 -1 74 -23 74 -33 0 -5 5 -8 11 -8 19 0 70 -41 63 -51 -3 -5
-2 -9 3 -8 20 3 34 -2 28 -11 -3 -6 1 -7 9 -4 9 4 18 -1 22 -10 3 -9 10 -16
16 -16 12 0 102 -61 106 -72 2 -4 11 -8 20 -8 15 0 15 -2 2 -10 -13 -8 -12
-10 3 -10 19 0 79 -37 85 -52 2 -4 8 -8 13 -8 15 0 59 -47 51 -54 -3 -4 0 -5
8 -1 8 3 27 -6 42 -20 15 -14 33 -25 40 -25 9 0 9 -3 -2 -10 -12 -8 -10 -10 8
-10 27 0 115 -57 107 -69 -2 -5 3 -8 13 -7 9 0 16 -5 14 -12 -1 -8 2 -11 7 -8
5 4 15 1 23 -6 7 -7 24 -19 39 -26 14 -7 39 -25 55 -40 16 -15 39 -32 49 -39
11 -6 19 -16 18 -22 -2 -6 0 -10 5 -10 20 3 32 -2 26 -13 -4 -7 -3 -8 4 -4 6
4 29 -7 52 -23 25 -18 36 -31 28 -34 -7 -3 -3 -6 10 -6 13 -1 20 -5 17 -11 -3
-5 1 -10 10 -10 20 0 135 -77 135 -90 0 -6 7 -10 15 -10 8 0 15 -4 15 -10 0
-5 6 -10 13 -10 7 0 23 -9 35 -20 12 -11 25 -20 29 -20 4 0 22 -12 38 -28 17
-15 40 -32 50 -39 11 -6 19 -16 17 -23 -1 -6 2 -9 7 -6 5 4 17 -1 25 -10 9 -8
16 -12 16 -8 0 4 9 -1 20 -11 11 -10 17 -22 13 -28 -3 -5 -1 -7 5 -3 6 3 17
-1 25 -9 9 -8 18 -15 20 -15 12 0 75 -69 69 -75 -4 -4 -2 -6 3 -4 17 4 59 -17
79 -40 11 -11 25 -21 33 -21 7 0 13 -4 13 -10 0 -5 7 -10 15 -10 8 0 15 -4 15
-10 0 -5 7 -10 15 -10 8 0 15 -4 15 -10 0 -5 5 -10 11 -10 13 0 99 -58 120
-82 9 -10 21 -18 28 -18 6 0 11 -4 11 -8 0 -5 11 -15 25 -22 13 -7 22 -17 19
-22 -3 -5 -2 -7 3 -6 4 1 19 -4 31 -11 29 -16 72 -6 72 16 0 9 3 13 7 10 3 -4
14 11 24 33 10 22 25 43 34 46 8 3 15 10 15 15 0 22 85 130 95 121 4 -4 6 -2
5 3 -4 19 0 30 24 57 12 15 26 24 30 20 4 -4 6 -2 4 3 -2 6 15 34 37 64 22 29
50 66 62 83 13 17 38 49 58 72 74 87 85 101 85 112 0 6 9 19 20 29 11 10 20
23 20 30 0 15 46 55 55 47 3 -4 3 1 0 10 -3 8 0 22 7 29 8 8 25 30 38 49 13
19 32 44 42 54 10 11 18 23 18 27 0 4 15 23 33 43 19 19 42 47 53 62 10 15 27
35 37 46 9 10 17 23 17 28 0 6 5 10 10 10 6 0 10 6 10 13 0 8 9 22 20 32 11
10 20 22 20 27 0 15 27 38 35 30 5 -4 5 -2 2 5 -4 6 0 18 8 26 8 9 15 18 15
21 0 8 68 97 90 118 10 9 21 14 24 10 4 -3 4 2 0 13 -6 14 -4 17 8 13 10 -4
15 -1 14 10 0 9 10 22 24 29 14 7 19 13 11 13 -11 0 -11 3 -1 15 7 8 17 12 23
8 6 -3 7 -1 3 5 -4 7 4 23 18 37 15 14 26 30 26 35 0 4 4 10 8 12 4 2 33 39
64 83 70 100 118 160 118 149 0 -5 11 11 23 36 13 25 29 44 36 42 7 -1 10 2 6
8 -9 14 23 62 35 55 6 -3 7 1 4 9 -4 9 1 18 10 22 9 3 16 10 16 16 0 5 11 20
25 34 14 14 25 29 25 34 0 5 14 24 31 42 17 18 38 47 46 63 9 17 24 36 34 43
11 7 19 18 19 24 0 6 8 18 18 27 10 9 32 36 49 61 17 25 40 55 51 66 12 12 18
24 15 28 -3 3 2 8 11 12 9 3 16 11 16 16 0 16 47 68 54 60 4 -3 4 0 1 9 -3 9
9 30 30 53 19 21 35 42 35 47 0 5 5 9 11 9 5 0 8 4 5 8 -7 11 170 223 179 214
5 -4 5 -2 2 4 -4 6 1 21 11 32 10 11 27 32 37 46 10 14 22 23 27 20 4 -3 8 3
8 13 1 10 14 34 30 53 17 19 30 39 30 46 0 6 7 18 16 25 9 7 20 24 25 37 6 15
14 21 21 16 7 -4 10 -4 6 1 -10 10 11 37 23 29 5 -3 7 1 4 8 -3 7 6 25 19 39
14 15 22 30 19 33 -4 3 2 6 12 6 10 0 16 3 12 6 -10 10 44 75 56 67 5 -3 7 -2
4 4 -9 14 42 85 55 77 7 -4 8 -3 4 4 -4 6 2 20 14 32 11 11 20 22 20 24 0 5
35 48 66 82 12 12 19 25 16 28 -3 3 0 6 6 6 6 0 23 22 39 49 15 27 31 47 35
45 4 -3 8 2 8 10 0 9 4 16 9 16 5 0 16 16 26 36 9 19 23 38 31 41 8 3 14 10
14 17 0 6 9 18 20 26 11 8 20 19 20 25 0 13 126 135 139 135 6 0 14 6 18 13 8
12 144 82 152 77 2 -1 7 3 11 9 18 29 306 45 380 21z"/>
</g>
</svg>
