<?xml version="1.0" standalone="no"?>
<!DOCTYPE svg PUBLIC "-//W3C//DTD SVG 20010904//EN"
 "http://www.w3.org/TR/2001/REC-SVG-20010904/DTD/svg10.dtd">
<svg version="1.0" xmlns="http://www.w3.org/2000/svg"
 width="834.000000pt" height="299.000000pt" viewBox="0 0 834.000000 299.000000"
 preserveAspectRatio="xMidYMid meet">
<metadata>
Created by potrace 1.16, written by Peter Selinger 2001-2019
</metadata>
<g transform="translate(0.000000,299.000000) scale(0.100000,-0.100000)"
fill="#000000" stroke="none">
<path d="M2940 1716 c-81 -23 -145 -65 -190 -127 l-28 -39 -7 78 -7 78 -84 2
-84 3 0 -471 0 -470 89 0 90 0 3 288 c3 268 5 291 26 342 12 30 35 71 52 92
97 117 319 120 398 4 42 -61 45 -90 49 -413 l5 -313 89 0 89 0 0 284 c0 314
-10 415 -46 493 -36 74 -110 138 -191 163 -74 23 -182 25 -253 6z"/>
</g>
</svg>
